<?xml version="1.0" encoding="UTF-8"?>
<svg xmlns="http://www.w3.org/2000/svg" xmlns:xlink="http://www.w3.org/1999/xlink" width="50pt" height="50pt" viewBox="0 0 50 50" version="1.1">
<g id="surface1">
<path style=" stroke:none;fill-rule:nonzero;fill:rgb(53.72549%,81.568627%,76.078431%);fill-opacity:1;" d="M 11.679688 0 L 42.5 0 L 42.5 40.921875 L 35.949219 40.921875 L 35.949219 6.554688 L 18.054688 6.554688 L 18.054688 117.445312 L 35.945312 117.445312 L 35.945312 83.257812 L 42.5 83.257812 L 42.5 124 L 11.679688 124 Z M 84.308594 77.589844 L 30.277344 77.589844 L 30.277344 113.195312 L 23.726562 113.195312 L 23.726562 71.035156 L 90.507812 71.035156 L 90.507812 117.445312 L 97.058594 117.445312 L 97.058594 65.1875 L 23.726562 65.1875 L 23.726562 58.988281 L 103.4375 58.988281 L 103.4375 124 L 84.308594 124 Z M 23.902344 11.691406 L 30.277344 11.691406 L 30.277344 46.414062 L 84.308594 46.414062 L 84.308594 0 L 90.507812 0 L 90.507812 52.609375 L 23.902344 52.609375 Z M 109.460938 6.554688 L 103.4375 6.554688 L 103.4375 53.144531 L 97.058594 53.144531 L 97.058594 0 L 115.660156 0 L 115.660156 124 L 109.460938 124 Z M 109.460938 6.554688 "/>
</g>
</svg>
